/* XPM */
static char * icon_xpm[] = {
"64 64 21 1",
" 	c #365037",
".	c #395439",
"+	c #3C5A3D",
"@	c #3F6140",
"#	c #426743",
"$	c #436E44",
"%	c #447546",
"&	c #457B47",
"*	c #448346",
"=	c #448646",
"-	c #3A563B",
";	c #3D5D3E",
">	c #406241",
",	c #426842",
"'	c #436D44",
")	c #457346",
"!	c #457947",
"~	c #416542",
"{	c #426943",
"]	c #447145",
"^	c #436B44",
"        ..++@@##$$%%&&****&&%%$$##@@++....++@@##$$%%&&**========",
"        ..++@@##$$%%&&****&&%%$$##@@++....++@@##$$%%&&**========",
"        ..++@@##$$%%&&****&&%%$$##@@++....++@@##$$%%&&**========",
"        ..++@@##$$%%&&****&&%%$$##@@++....++@@##$$%%&&**========",
"        ..++@@##$$%%&&****&&%%$$##@@++....++@@##$$%%&&**========",
"        ..++@@##$$%%&&****&&%%$$##@@++....++@@##$$%%&&**========",
"        ..++@@##$$%%&&****&&%%$$##@@++....++@@##$$%%&&**========",
"        ..++@@##$$%%&&****&&%%$$##@@++....++@@##$$%%&&**========",
"........--;;>>,,''))!!****!!))'',,>>;;----;;>>,,''))!!**********",
"........--;;>>,,''))!!****!!))'',,>>;;----;;>>,,''))!!**********",
"++++++++;;@@~~{{'']]%%!!!!%%]]''{{~~@@;;;;@@~~{{'']]%%!!&&&&&&&&",
"++++++++;;@@~~{{'']]%%!!!!%%]]''{{~~@@;;;;@@~~{{'']]%%!!&&&&&&&&",
"@@@@@@@@>>~~##{{''$$]]))))]]$$''{{##~~>>>>~~##{{''$$]]))%%%%%%%%",
"@@@@@@@@>>~~##{{''$$]]))))]]$$''{{##~~>>>>~~##{{''$$]]))%%%%%%%%",
"########,,{{{{{{^^''''''''''''^^{{{{{{,,,,{{{{{{^^''''''$$$$$$$$",
"########,,{{{{{{^^''''''''''''^^{{{{{{,,,,{{{{{{^^''''''$$$$$$$$",
"$$$$$$$$''''''^^{{{{{{,,,,{{{{{{^^''''''''''''^^{{{{{{,,########",
"$$$$$$$$''''''^^{{{{{{,,,,{{{{{{^^''''''''''''^^{{{{{{,,########",
"%%%%%%%%))]]$$''{{##~~>>>>~~##{{''$$]]))))]]$$''{{##~~>>@@@@@@@@",
"%%%%%%%%))]]$$''{{##~~>>>>~~##{{''$$]]))))]]$$''{{##~~>>@@@@@@@@",
"&&&&&&&&!!%%]]''{{~~@@;;;;@@~~{{'']]%%!!!!%%]]''{{~~@@;;++++++++",
"&&&&&&&&!!%%]]''{{~~@@;;;;@@~~{{'']]%%!!!!%%]]''{{~~@@;;++++++++",
"**********!!))'',,>>;;----;;>>,,''))!!****!!))'',,>>;;--........",
"**********!!))'',,>>;;----;;>>,,''))!!****!!))'',,>>;;--........",
"**********!!))'',,>>;;----;;>>,,''))!!****!!))'',,>>;;--........",
"**********!!))'',,>>;;----;;>>,,''))!!****!!))'',,>>;;--........",
"&&&&&&&&!!%%]]''{{~~@@;;;;@@~~{{'']]%%!!!!%%]]''{{~~@@;;++++++++",
"&&&&&&&&!!%%]]''{{~~@@;;;;@@~~{{'']]%%!!!!%%]]''{{~~@@;;++++++++",
"%%%%%%%%))]]$$''{{##~~>>>>~~##{{''$$]]))))]]$$''{{##~~>>@@@@@@@@",
"%%%%%%%%))]]$$''{{##~~>>>>~~##{{''$$]]))))]]$$''{{##~~>>@@@@@@@@",
"$$$$$$$$''''''^^{{{{{{,,,,{{{{{{^^''''''''''''^^{{{{{{,,########",
"$$$$$$$$''''''^^{{{{{{,,,,{{{{{{^^''''''''''''^^{{{{{{,,########",
"########,,{{{{{{^^''''''''''''^^{{{{{{,,,,{{{{{{^^''''''$$$$$$$$",
"########,,{{{{{{^^''''''''''''^^{{{{{{,,,,{{{{{{^^''''''$$$$$$$$",
"@@@@@@@@>>~~##{{''$$]]))))]]$$''{{##~~>>>>~~##{{''$$]]))%%%%%%%%",
"@@@@@@@@>>~~##{{''$$]]))))]]$$''{{##~~>>>>~~##{{''$$]]))%%%%%%%%",
"++++++++;;@@~~{{'']]%%!!!!%%]]''{{~~@@;;;;@@~~{{'']]%%!!&&&&&&&&",
"++++++++;;@@~~{{'']]%%!!!!%%]]''{{~~@@;;;;@@~~{{'']]%%!!&&&&&&&&",
"........--;;>>,,''))!!****!!))'',,>>;;----;;>>,,''))!!**********",
"........--;;>>,,''))!!****!!))'',,>>;;----;;>>,,''))!!**********",
"........--;;>>,,''))!!****!!))'',,>>;;----;;>>,,''))!!**********",
"........--;;>>,,''))!!****!!))'',,>>;;----;;>>,,''))!!**********",
"++++++++;;@@~~{{'']]%%!!!!%%]]''{{~~@@;;;;@@~~{{'']]%%!!&&&&&&&&",
"++++++++;;@@~~{{'']]%%!!!!%%]]''{{~~@@;;;;@@~~{{'']]%%!!&&&&&&&&",
"@@@@@@@@>>~~##{{''$$]]))))]]$$''{{##~~>>>>~~##{{''$$]]))%%%%%%%%",
"@@@@@@@@>>~~##{{''$$]]))))]]$$''{{##~~>>>>~~##{{''$$]]))%%%%%%%%",
"########,,{{{{{{^^''''''''''''^^{{{{{{,,,,{{{{{{^^''''''$$$$$$$$",
"########,,{{{{{{^^''''''''''''^^{{{{{{,,,,{{{{{{^^''''''$$$$$$$$",
"$$$$$$$$''''''^^{{{{{{,,,,{{{{{{^^''''''''''''^^{{{{{{,,########",
"$$$$$$$$''''''^^{{{{{{,,,,{{{{{{^^''''''''''''^^{{{{{{,,########",
"%%%%%%%%))]]$$''{{##~~>>>>~~##{{''$$]]))))]]$$''{{##~~>>@@@@@@@@",
"%%%%%%%%))]]$$''{{##~~>>>>~~##{{''$$]]))))]]$$''{{##~~>>@@@@@@@@",
"&&&&&&&&!!%%]]''{{~~@@;;;;@@~~{{'']]%%!!!!%%]]''{{~~@@;;++++++++",
"&&&&&&&&!!%%]]''{{~~@@;;;;@@~~{{'']]%%!!!!%%]]''{{~~@@;;++++++++",
"**********!!))'',,>>;;----;;>>,,''))!!****!!))'',,>>;;--........",
"**********!!))'',,>>;;----;;>>,,''))!!****!!))'',,>>;;--........",
"========**&&%%$$##@@++....++@@##$$%%&&****&&%%$$##@@++..        ",
"========**&&%%$$##@@++....++@@##$$%%&&****&&%%$$##@@++..        ",
"========**&&%%$$##@@++....++@@##$$%%&&****&&%%$$##@@++..        ",
"========**&&%%$$##@@++....++@@##$$%%&&****&&%%$$##@@++..        ",
"========**&&%%$$##@@++....++@@##$$%%&&****&&%%$$##@@++..        ",
"========**&&%%$$##@@++....++@@##$$%%&&****&&%%$$##@@++..        ",
"========**&&%%$$##@@++....++@@##$$%%&&****&&%%$$##@@++..        ",
"========**&&%%$$##@@++....++@@##$$%%&&****&&%%$$##@@++..        "};
