/* XPM */
static char *f2655a204bff45d1b6e88aca8268b7bcOXusA1llJxcmB9NM[] = {
/* columns rows colors chars-per-pixel */
"32 32 29 1 ",
"  c #A66767",
". c #AB6E6E",
"X c #AE7373",
"o c #B37A7A",
"O c #B67E7E",
"+ c #BB8484",
"@ c #BB8585",
"# c #BD8787",
"$ c #C08B8B",
"% c #C38E8E",
"& c #C38F8F",
"* c #C48F8F",
"= c #C59090",
"- c #C69292",
"; c #C79393",
": c #C79494",
"> c #C89595",
", c #C99696",
"< c #CA9797",
"1 c #CB9898",
"2 c #CE9C9C",
"3 c #D09F9F",
"4 c #D2A0A0",
"5 c #D2A1A1",
"6 c #D6A6A6",
"7 c #D8A8A8",
"8 c #DCACAC",
"9 c #DFAFAF",
"0 c #E2B3B3",
/* pixels */
"    .o@&14799741&@o..o@&14790000",
"    .o@&14799741&@o..o@&14790000",
"    .o@&14799741&@o..o@&14790000",
"    .o@&14799741&@o..o@&14790000",
"....XO#*<369963<*#OXXO#*<3699999",
"ooooO@$=<246642<=$@OO@$=<2467777",
"@@@@#$&=<123321<=&$##$&=<1234444",
"&&&&*===:<<<<<<:===**===:<<<1111",
"1111<<<:===**===:<<<<<<:===*&&&&",
"4444321<=&$##$&=<123321<=&$#@@@@",
"7777642<=$@OO@$=<246642<=$@Ooooo",
"9999963<*#OXXO#*<369963<*#OX....",
"9999963<*#OXXO#*<369963<*#OX....",
"7777642<=$@OO@$=<246642<=$@Ooooo",
"4444321<=&$##$&=<123321<=&$#@@@@",
"1111<<<:===**===:<<<<<<:===*&&&&",
"&&&&*===:<<<<<<:===**===:<<<1111",
"@@@@#$&=<123321<=&$##$&=<1234444",
"ooooO@$=<246642<=$@OO@$=<2467777",
"....XO#*<369963<*#OXXO#*<3699999",
"....XO#*<369963<*#OXXO#*<3699999",
"ooooO@$=<246642<=$@OO@$=<2467777",
"@@@@#$&=<123321<=&$##$&=<1234444",
"&&&&*===:<<<<<<:===**===:<<<1111",
"1111<<<:===**===:<<<<<<:===*&&&&",
"4444321<=&$##$&=<123321<=&$#@@@@",
"7777642<=$@OO@$=<246642<=$@Ooooo",
"9999963<*#OXXO#*<369963<*#OX....",
"00009741&@o..o@&14799741&@o.    ",
"00009741&@o..o@&14799741&@o.    ",
"00009741&@o..o@&14799741&@o.    ",
"00009741&@o..o@&14799741&@o.    "
};
